<svg width="91" height="54" viewBox="0 0 91 54" fill="none" xmlns="http://www.w3.org/2000/svg">
<path fill-rule="evenodd" clip-rule="evenodd" d="M16.6003 8.34308C16.9731 8.34308 17.3306 8.49115 17.5941 8.75472C17.8577 9.0183 18.0058 9.37578 18.0058 9.74853C18.0058 12.7188 17.6336 18.9685 16.6131 25.0778C16.1028 28.1334 15.4234 31.1954 14.5303 33.8123C13.6542 36.3804 12.5072 38.7207 10.9491 40.1341C10.6723 40.3792 10.31 40.5052 9.94079 40.485C9.57161 40.4647 9.22528 40.2998 8.97685 40.026C8.72841 39.7521 8.59789 39.3914 8.61357 39.022C8.62925 38.6526 8.78986 38.3043 9.0606 38.0525C10.0685 37.1379 11.0289 35.3701 11.8703 32.9044C12.695 30.4874 13.3437 27.5897 13.8408 24.6147C14.835 18.6629 15.1949 12.5681 15.1949 9.74853C15.1949 9.37578 15.343 9.0183 15.6065 8.75472C15.8701 8.49115 16.2276 8.34308 16.6003 8.34308Z" fill="#6DDAD2"/>
<path fill-rule="evenodd" clip-rule="evenodd" d="M4.09057 35.5451C4.11323 37.1453 5.22408 38.7296 7.55982 38.7296C8.10706 38.7296 8.70732 38.4702 9.38329 37.7263C9.63395 37.4504 9.98394 37.2854 10.3563 37.2676C10.7286 37.2497 11.0927 37.3805 11.3686 37.6312C11.6445 37.8818 11.8095 38.2318 11.8274 38.6042C11.8452 38.9765 11.7144 39.3406 11.4637 39.6165C10.4495 40.7324 9.14849 41.5405 7.55982 41.5405C3.52549 41.5405 1.3221 38.5546 1.27991 35.5846C1.25918 34.1167 1.75989 32.6088 2.84519 31.4584C3.94809 30.2895 5.5599 29.5892 7.55982 29.5892C9.67716 29.5892 11.5763 30.6231 13.2833 31.8972C14.5699 32.8576 15.891 34.0702 17.2116 35.2825C17.6359 35.6721 18.0602 36.0617 18.4835 36.4426C22.0851 39.6864 25.8733 42.574 30.7649 42.574C32.0949 42.574 33.5215 42.4243 34.6343 42.2695C35.1864 42.1929 35.6521 42.116 35.9785 42.0588C36.1364 42.031 36.2941 42.002 36.4515 41.9718L36.4744 41.9672L36.4797 41.9663C36.8436 41.8963 37.2204 41.9728 37.5281 42.1792C37.8358 42.3855 38.0496 42.7051 38.1229 43.0683C38.1962 43.4315 38.1231 43.809 37.9196 44.1186C37.716 44.4282 37.3984 44.6448 37.0359 44.7215H37.0354L37.0318 44.7222L37.0229 44.7239L36.992 44.7301L36.8787 44.7518C36.7813 44.7704 36.6408 44.7964 36.4643 44.8273C36.1111 44.8892 35.6121 44.9714 35.0215 45.0537C33.8487 45.2166 32.2788 45.3849 30.7649 45.3849C24.7096 45.3849 20.2096 41.7801 16.6024 38.5312C16.1251 38.1012 15.6666 37.6805 15.2225 37.2731C13.9325 36.0894 12.7638 35.0169 11.6021 34.1498C10.0472 32.9892 8.75674 32.4001 7.55982 32.4001C6.24526 32.4001 5.40368 32.8424 4.88996 33.3872C4.3584 33.9506 4.07899 34.7278 4.09057 35.5451ZM29.357 21.7375C28.1928 21.7351 27.0534 22.0738 26.0794 22.7116C25.925 22.8144 25.7518 22.8855 25.5698 22.921C25.3877 22.9565 25.2005 22.9556 25.0188 22.9184C24.8371 22.8812 24.6646 22.8083 24.5111 22.7041C24.3577 22.5999 24.2264 22.4664 24.1249 22.3112C24.0233 22.156 23.9535 21.9822 23.9194 21.7999C23.8853 21.6176 23.8876 21.4304 23.9262 21.249C23.9648 21.0676 24.0389 20.8956 24.1443 20.743C24.2497 20.5904 24.3842 20.4601 24.5402 20.3597C25.9716 19.4225 27.646 18.9243 29.357 18.9266C34.2206 18.9266 38.1631 22.8693 38.1631 27.7329C38.1631 30.4859 36.8982 32.9449 34.9229 34.5574C34.6339 34.7912 34.2642 34.901 33.8945 34.8628C33.5248 34.8246 33.1853 34.6415 32.9502 34.3536C32.7152 34.0657 32.6037 33.6964 32.6403 33.3266C32.6768 32.9567 32.8584 32.6164 33.1452 32.38C34.4947 31.2783 35.3525 29.6063 35.3525 27.7329C35.3525 24.4218 32.6681 21.7375 29.357 21.7375ZM45.45 9.25189C45.0772 9.25189 44.7198 9.39997 44.4562 9.66354C44.1926 9.92711 44.0445 10.2846 44.0445 10.6573C44.0445 11.0301 44.1926 11.3876 44.4562 11.6511C44.7198 11.9147 45.0772 12.0628 45.45 12.0628H54.218C54.1891 13.7922 54.0996 16.4491 53.9827 19.4314H52.5257C51.6154 19.4314 50.762 19.3345 49.9508 19.1631C49.5875 19.0896 49.2098 19.1626 48.9001 19.3662C48.5904 19.5698 48.3736 19.8875 48.297 20.2502C48.2204 20.6129 48.2902 20.9911 48.4912 21.3026C48.6922 21.6141 49.008 21.8335 49.37 21.9132C50.4076 22.1327 51.4652 22.243 52.5257 22.2423H53.8682C53.7686 24.4903 53.6271 26.7698 53.5068 28.5342C53.4391 29.5252 53.3668 30.5158 53.2901 31.5062L53.2766 31.6783L53.2718 31.7364C53.249 32.1039 53.3713 32.4657 53.6125 32.744C53.8537 33.0223 54.1944 33.1949 54.5615 33.2245C54.9285 33.2542 55.2925 33.1387 55.5753 32.9028C55.8581 32.6669 56.037 32.3294 56.0735 31.963L56.0863 31.8034L56.0923 31.7258C56.1698 30.7261 56.2427 29.726 56.311 28.7256C56.4421 26.8045 56.5988 24.2661 56.7003 21.8091C56.8592 17.9529 56.993 14.2896 57.0289 12.0628H65.5226C65.8953 12.0628 66.2528 11.9147 66.5164 11.6511C66.7799 11.3876 66.928 11.0301 66.928 10.6573C66.928 10.2846 66.7799 9.92711 66.5164 9.66354C66.2528 9.39997 65.8953 9.25189 65.5226 9.25189H45.45Z" fill="#006A5F"/>
<path fill-rule="evenodd" clip-rule="evenodd" d="M40.3427 17.6067C37.5287 15.8556 35.0252 14.4776 31.8929 14.5164C29.6517 14.5441 28.2735 15.4494 27.415 16.6111C26.5142 17.8302 26.1207 19.4311 26.1207 20.8368C26.1207 21.3619 26.2931 21.9875 26.6422 22.7285C26.9891 23.4647 27.465 24.2217 27.9849 25.0062C28.0934 25.1701 28.2055 25.3374 28.3188 25.5064L28.3191 25.5066V25.5069C28.7238 26.1107 29.144 26.7375 29.4745 27.3134C29.8757 28.0123 30.3168 28.912 30.3168 29.831C30.3168 30.2037 30.1688 30.5612 29.9052 30.8248C29.6416 31.0883 29.2841 31.2364 28.9114 31.2364C28.5386 31.2364 28.1811 31.0883 27.9176 30.8248C27.654 30.5612 27.5059 30.2037 27.5059 29.831C27.5059 29.7177 27.4225 29.3847 27.037 28.7129C26.7596 28.2298 26.4148 27.7153 26.0219 27.1283C25.8999 26.9458 25.7729 26.7566 25.642 26.5591C25.209 25.9058 24.7461 25.1838 24.3513 24.4314C23.7037 25.4105 23.3595 26.5589 23.3617 27.7327C23.3617 31.0438 26.046 33.7281 29.3571 33.7281C30.8084 33.7308 32.2109 33.2044 33.302 32.2475C33.5832 32.0069 33.948 31.887 34.3171 31.9137C34.6862 31.9404 35.0299 32.1116 35.2735 32.3902C35.5171 32.6687 35.6411 33.0321 35.6184 33.4015C35.5958 33.7709 35.4283 34.1164 35.1525 34.3631C33.549 35.7681 31.4891 36.5416 29.3571 36.539C24.4935 36.539 20.5508 32.5963 20.5508 27.7327C20.5508 25.2002 21.6216 22.9158 23.3311 21.311C23.317 21.1533 23.31 20.9951 23.3098 20.8368C23.3098 18.9815 23.8156 16.7526 25.1545 14.9407C26.5356 13.0717 28.7376 11.7446 31.8582 11.7058C35.8861 11.6559 39.0115 13.4678 41.8277 15.2203C42.0433 15.3544 42.2571 15.4879 42.4692 15.621C45.1066 17.2709 47.5206 18.7812 50.5251 19.2706C50.8905 19.3332 51.2163 19.5377 51.4316 19.8395C51.6469 20.1412 51.7343 20.5158 51.6747 20.8817C51.6151 21.2476 51.4134 21.5751 51.1135 21.7929C50.8136 22.0108 50.4397 22.1013 50.0734 22.0448C48.5835 21.8021 47.2157 21.3489 45.9421 20.7864C45.8691 22.5149 45.7521 24.9008 45.6263 27.3351C45.4506 30.7314 45.0181 34.7341 44.8233 36.3153C44.8025 36.4999 44.7452 36.6785 44.6549 36.8408C44.5646 37.0032 44.443 37.146 44.2972 37.261C44.1513 37.3761 43.9841 37.4611 43.8052 37.5111C43.6264 37.5611 43.4393 37.5752 43.255 37.5525C43.0706 37.5298 42.8926 37.4708 42.7311 37.3788C42.5697 37.2869 42.4281 37.1639 42.3146 37.0169C42.201 36.8699 42.1177 36.7018 42.0695 36.5225C42.0212 36.3431 42.0091 36.1559 42.0336 35.9718C42.2241 34.4241 42.6484 30.4939 42.8193 27.19C42.9825 24.0358 43.1286 20.9947 43.185 19.3574C42.4408 18.9227 41.7275 18.4748 41.0373 18.0414C40.8032 17.8945 40.5718 17.7492 40.3427 17.6067ZM70.7879 10.9594C70.7879 10.5867 70.9359 10.2293 71.1995 9.96569C71.463 9.70212 71.8204 9.55402 72.1931 9.55396H76.6606C77.0334 9.55396 77.3909 9.70203 77.6544 9.9656C77.918 10.2292 78.0661 10.5867 78.0661 10.9594C78.0661 11.3321 77.918 11.6896 77.6544 11.9532C77.3909 12.2168 77.0334 12.3648 76.6606 12.3648H72.1931C71.8204 12.3648 71.463 12.2167 71.1995 11.9531C70.9359 11.6896 70.7879 11.3321 70.7879 10.9594Z" fill="#6DDAD2"/>
<path fill-rule="evenodd" clip-rule="evenodd" d="M75.3205 10.9594C75.3205 10.5867 75.4685 10.2292 75.7321 9.9656C75.9957 9.70203 76.3532 9.55396 76.7259 9.55396H81.6618C82.0346 9.55396 82.3921 9.70203 82.6557 9.9656C82.9192 10.2292 83.0673 10.5867 83.0673 10.9594C83.0673 11.3321 82.9192 11.6896 82.6557 11.9532C82.3921 12.2168 82.0346 12.3648 81.6618 12.3648H76.7259C76.3532 12.3648 75.9957 12.2168 75.7321 11.9532C75.4685 11.6896 75.3205 11.3321 75.3205 10.9594ZM70.7881 26.2747C70.7881 25.9019 70.9362 25.5444 71.1997 25.2809C71.4633 25.0173 71.8208 24.8692 72.1935 24.8692H81.2583C81.631 24.8692 81.9885 25.0173 82.2521 25.2809C82.5157 25.5444 82.6637 25.9019 82.6637 26.2747C82.6637 26.6474 82.5157 27.0049 82.2521 27.2685C81.9885 27.532 81.631 27.6801 81.2583 27.6801H72.1935C71.8208 27.6801 71.4633 27.532 71.1997 27.2685C70.9362 27.0049 70.7881 26.6474 70.7881 26.2747Z" fill="#006A5F"/>
<path fill-rule="evenodd" clip-rule="evenodd" d="M85.6633 26.2747C85.6633 25.902 85.8113 25.5445 86.0749 25.2809C86.3385 25.0173 86.696 24.8693 87.0687 24.8693H87.1203C87.493 24.8693 87.8505 25.0173 88.1141 25.2809C88.3777 25.5445 88.5257 25.902 88.5257 26.2747C88.5257 26.6475 88.3777 27.0049 88.1141 27.2685C87.8505 27.5321 87.493 27.6802 87.1203 27.6802H87.0687C86.696 27.6802 86.3385 27.5321 86.0749 27.2685C85.8113 27.0049 85.6633 26.6475 85.6633 26.2747ZM62.4932 18.5893C62.4932 18.2166 62.6412 17.8592 62.9047 17.5956C63.1682 17.3321 63.5257 17.184 63.8984 17.1839H75.937C76.1231 17.1815 76.3078 17.216 76.4805 17.2855C76.6531 17.3551 76.8102 17.4582 76.9427 17.5889C77.0751 17.7197 77.1803 17.8754 77.2521 18.0471C77.3239 18.2188 77.3608 18.4031 77.3608 18.5892C77.3608 18.7753 77.3239 18.9596 77.2521 19.1313C77.1803 19.303 77.0751 19.4588 76.9427 19.5895C76.8102 19.7203 76.6531 19.8234 76.4805 19.8929C76.3078 19.9624 76.1231 19.997 75.937 19.9946H63.8984C63.5257 19.9945 63.1683 19.8464 62.9048 19.5829C62.6413 19.3194 62.4932 18.962 62.4932 18.5893Z" fill="#6DDAD2"/>
<path fill-rule="evenodd" clip-rule="evenodd" d="M74.6641 18.5891C74.6641 18.2164 74.8121 17.859 75.0756 17.5954C75.3391 17.3318 75.6966 17.1837 76.0693 17.1837H81.6612C82.0339 17.1837 82.3914 17.3317 82.655 17.5953C82.9185 17.8589 83.0666 18.2164 83.0666 18.5891C83.0666 18.9618 82.9185 19.3193 82.655 19.5829C82.3914 19.8465 82.0339 19.9945 81.6612 19.9945H76.0693C75.6966 19.9945 75.3391 19.8464 75.0756 19.5828C74.8121 19.3193 74.6641 18.9618 74.6641 18.5891Z" fill="#006A5F"/>
<path fill-rule="evenodd" clip-rule="evenodd" d="M64.1604 23.8787C65.063 23.8944 65.5552 24.6619 65.5376 25.4852C65.5206 26.226 65.4978 26.9667 65.4694 27.7071C65.4147 29.1333 65.3219 31.032 65.169 32.9046C65.0331 34.5705 64.8882 36.4192 64.7773 37.8524C64.7218 38.5689 64.6748 39.1809 64.6418 39.6141L64.603 40.1199L64.5895 40.3005C64.5553 40.6675 64.3784 41.0064 64.0967 41.2442C63.8151 41.482 63.4513 41.5996 63.0838 41.5718C62.7162 41.544 62.3743 41.3729 62.1317 41.0955C61.889 40.818 61.7651 40.4563 61.7866 40.0883L61.8003 39.9068L61.8391 39.3998C62.0095 37.1581 62.1856 34.9169 62.3675 32.6761C62.516 30.8587 62.6069 29.0041 62.6607 27.5996C62.6885 26.8748 62.7108 26.1498 62.7275 25.4247L62.7299 25.3003L62.7308 25.2593C62.7374 24.8867 62.8916 24.5319 63.1597 24.273C63.4278 24.0141 63.7878 23.8722 64.1604 23.8787Z" fill="#6DDAD2"/>
</svg>
