<svg width="60" height="60" viewBox="0 0 512 512" fill="none" xmlns="http://www.w3.org/2000/svg">
    <rect width="60" height="60" rx="120" fill="white"/>
    <path fill-rule="evenodd" clip-rule="evenodd" d="M182.127 107.623C188.68 99.3659 200.685 97.9843 208.942 104.537C215.795 109.975 222.711 116.481 227.736 121.419C230.291 123.929 232.446 126.122 233.969 127.696C234.732 128.484 235.341 129.12 235.765 129.567C235.978 129.79 236.145 129.967 236.262 130.091L236.402 130.239L236.461 130.303L236.463 130.305C236.464 130.306 236.464 130.307 222.89 143.005L236.464 130.307C243.665 138.005 243.263 150.083 235.565 157.284C227.868 164.483 215.792 164.082 208.591 156.387C208.591 156.387 208.591 156.387 208.591 156.387C208.59 156.387 208.59 156.386 208.589 156.386C208.589 156.385 208.588 156.384 208.588 156.384L208.574 156.369L208.485 156.275C208.402 156.187 208.271 156.048 208.097 155.864C207.747 155.496 207.221 154.946 206.548 154.251C205.199 152.858 203.27 150.894 200.981 148.646C196.32 144.066 190.512 138.643 185.213 134.438C176.956 127.885 175.575 115.88 182.127 107.623ZM243.943 170.149C253.296 165.288 264.819 168.929 269.681 178.282C284.526 206.841 290.91 236.597 290.91 272.972C290.91 348.452 269.346 394.432 239.19 420.193C209.487 445.567 174.667 448.495 153.653 444.395C143.307 442.376 136.557 432.352 138.576 422.007C140.594 411.661 150.618 404.91 160.964 406.929C172.556 409.191 194.993 407.744 214.396 391.169C233.347 374.98 252.738 341.434 252.738 272.972C252.738 241.562 247.337 218.062 235.811 195.887C230.949 186.534 234.59 175.011 243.943 170.149Z" fill="#00D1C1"/>
    <path fill-rule="evenodd" clip-rule="evenodd" d="M204.484 292.985C165.482 302.702 138.383 321.484 130.655 358.036C129.236 364.748 130.859 376.317 137.087 387.356C143.174 398.146 151.756 405.132 160.964 406.929L153.653 444.394C130.256 439.829 113.568 423.355 103.84 406.112C94.2533 389.119 89.5155 368.081 93.3085 350.14C105.33 293.279 149.223 267.414 195.256 255.945C237.374 245.451 285.465 245.807 321.815 246.077C324.613 246.097 327.341 246.118 329.992 246.132L329.78 284.304C327.359 284.291 324.907 284.274 322.428 284.258C285.142 284.008 241.685 283.716 204.484 292.985ZM349.086 246.331L415.887 246.729L415.66 284.901L348.858 284.503L349.086 246.331ZM436.45 247.524H512V285.696H436.45V247.524Z" fill="#007986"/>
    <path d="M147.772 105.172C158.313 105.172 166.858 96.6272 166.858 86.0862C166.858 75.5452 158.313 67 147.772 67C137.231 67 128.686 75.5452 128.686 86.0862C128.686 96.6272 137.231 105.172 147.772 105.172Z" fill="#00D1C1"/>
</svg>
