<svg xmlns="http://www.w3.org/2000/svg" width="72" height="28" fill="none"><rect width="72" height="28" fill="#fff" rx="8"/><rect width="71" height="27" x=".5" y=".5" stroke="#000" stroke-opacity=".1" rx="7.5"/><path fill="#6DDAD2" fill-rule="evenodd" d="M11.423 6.934a.909.909 0 0 1 1.277-.146c.327.258.656.568.895.803a17.28 17.28 0 0 1 .383.388l.023.025.007.007.003.004-.646.604.646-.604a.909.909 0 0 1-1.327 1.242l-.001-.001-.005-.005a10.134 10.134 0 0 0-1.108-1.04.909.909 0 0 1-.147-1.277Zm2.944 2.978a.909.909 0 0 1 1.226.387c.706 1.36 1.01 2.777 1.01 4.51 0 3.594-1.026 5.783-2.462 7.01-1.415 1.208-3.073 1.348-4.073 1.152a.909.909 0 0 1 .348-1.784c.552.108 1.62.039 2.544-.75.902-.771 1.826-2.369 1.826-5.629 0-1.495-.257-2.614-.806-3.67a.909.909 0 0 1 .387-1.226Z" clip-rule="evenodd"/><path fill="#006A5F" fill-rule="evenodd" d="M12.488 15.761c-1.857.463-3.147 1.357-3.515 3.098-.068.32.01.87.306 1.396.29.514.698.847 1.137.932l-.348 1.784c-1.114-.217-1.91-1.002-2.372-1.823-.457-.809-.682-1.81-.502-2.665.573-2.708 2.663-3.94 4.855-4.486 2.005-.5 4.295-.482 6.026-.47l.39.003-.01 1.818-.35-.002c-1.776-.012-3.845-.026-5.617.415Zm6.886-2.221 3.181.019-.01 1.817-3.182-.019.011-1.817Zm4.16.057h3.598v1.817h-3.598v-1.817Z" clip-rule="evenodd"/><path fill="#6DDAD2" d="M9.788 6.818a.909.909 0 1 0 0-1.818.909.909 0 0 0 0 1.818Z"/><path fill="#000" fill-opacity=".05" fill-rule="evenodd" d="M31.632 4c.276 0 .5.211.5.472v19.056c0 .26-.224.472-.5.472s-.5-.211-.5-.472V4.472c0-.26.224-.472.5-.472Z" clip-rule="evenodd"/><path fill="#006A5F" d="M60.443 13.617c-.547 0-1.02-.113-1.417-.34-.395-.23-.7-.554-.913-.973-.213-.422-.32-.918-.32-1.488 0-.561.107-1.054.32-1.478.216-.426.517-.757.902-.994.386-.239.84-.359 1.36-.359.337 0 .654.055.952.164.3.106.566.272.796.497.232.225.414.511.547.86.132.345.198.757.198 1.235v.394h-4.47v-.866h3.238a1.383 1.383 0 0 0-.16-.657 1.162 1.162 0 0 0-.437-.458 1.228 1.228 0 0 0-.646-.167c-.263 0-.493.064-.692.192a1.322 1.322 0 0 0-.465.497 1.431 1.431 0 0 0-.167.67v.757c0 .318.058.59.174.817.116.225.278.398.486.519.209.118.452.177.732.177.187 0 .356-.026.508-.078a1.13 1.13 0 0 0 .394-.238.992.992 0 0 0 .252-.387l1.2.135c-.076.317-.22.594-.433.83-.21.235-.48.418-.81.548-.329.128-.705.191-1.13.191ZM55.42 13.511V8.056h1.286v5.455h-1.285Zm.647-6.229a.75.75 0 0 1-.526-.202.652.652 0 0 1-.22-.494c0-.194.074-.358.22-.493a.742.742 0 0 1 .526-.206c.206 0 .381.068.526.206.146.135.22.3.22.493a.652.652 0 0 1-.22.494.742.742 0 0 1-.526.202ZM54.346 8.056v.995H51.21v-.995h3.136ZM51.984 6.75h1.286v5.12c0 .173.026.306.078.398.054.09.125.152.213.185.087.033.184.05.291.05.08 0 .154-.006.22-.018.069-.012.12-.023.156-.032l.217 1.005a2.42 2.42 0 0 1-.756.128c-.322.01-.612-.04-.87-.146a1.353 1.353 0 0 1-.615-.504c-.149-.227-.222-.512-.22-.852V6.75ZM50.547 8.056v.995H47.41v-.995h3.136ZM48.185 6.75h1.286v5.12c0 .173.026.306.078.398.054.09.125.152.213.185s.185.05.291.05c.08 0 .154-.006.22-.018.069-.012.121-.023.157-.032l.216 1.005a2.42 2.42 0 0 1-.756.128c-.322.01-.612-.04-.87-.146a1.353 1.353 0 0 1-.614-.504c-.15-.227-.223-.512-.22-.852V6.75ZM44.118 13.617c-.532 0-.994-.117-1.385-.351a2.388 2.388 0 0 1-.909-.984c-.213-.421-.32-.914-.32-1.477 0-.563.107-1.057.32-1.48.216-.425.519-.754.91-.988.39-.234.852-.352 1.384-.352.533 0 .995.118 1.385.352.39.234.693.563.906.987.215.424.323.918.323 1.481 0 .563-.108 1.056-.323 1.477-.213.422-.515.75-.906.984-.39.234-.852.351-1.385.351Zm.007-1.03c.29 0 .53-.079.725-.237.194-.161.338-.377.433-.646.097-.27.146-.571.146-.902a2.66 2.66 0 0 0-.146-.906 1.433 1.433 0 0 0-.433-.65 1.097 1.097 0 0 0-.725-.241c-.295 0-.542.08-.738.241-.194.161-.34.378-.437.65-.095.27-.142.572-.142.905 0 .332.047.633.142.902.097.27.243.486.437.647.196.158.443.238.738.238ZM36.132 13.511V6.238h1.317v6.169h3.203v1.104h-4.52Z"/><path fill="#000" fill-opacity=".8" d="M45.424 22.113a1.424 1.424 0 0 1-.863-.266c-.239-.176-.421-.433-.548-.77-.126-.336-.19-.742-.19-1.216 0-.473.064-.877.19-1.212.128-.335.311-.591.55-.767.24-.177.527-.265.86-.265.334 0 .62.09.86.267.238.176.42.432.547.767.128.334.192.737.192 1.21 0 .476-.063.882-.19 1.219-.126.335-.309.591-.547.769a1.41 1.41 0 0 1-.861.264Zm0-.569c.295 0 .526-.144.692-.432.168-.289.252-.705.252-1.251 0-.362-.039-.668-.115-.918-.076-.252-.184-.442-.326-.571a.713.713 0 0 0-.503-.196c-.294 0-.525.145-.693.434-.167.29-.252.707-.253 1.251 0 .364.037.671.113.923.076.25.185.44.326.569.14.127.31.191.507.191ZM42.792 22.081a.413.413 0 0 1-.3-.123.412.412 0 0 1-.126-.303c0-.116.042-.216.125-.298a.41.41 0 0 1 .3-.126.41.41 0 0 1 .301.126.403.403 0 0 1 .126.298.442.442 0 0 1-.213.369.407.407 0 0 1-.213.057ZM41.435 17.677v4.364h-.66v-3.703h-.026l-1.044.681v-.63l1.089-.712h.641ZM39.19 18.768l-1.187 3.273h-.682l-1.19-3.273h.685l.829 2.518h.034l.826-2.518h.684Z"/></svg>