<svg xmlns="http://www.w3.org/2000/svg" width="144" height="56" fill="none"><rect width="144" height="56" fill="#000" rx="16"/><rect width="142" height="54" x="1" y="1" stroke="#fff" stroke-opacity=".2" stroke-width="2" rx="15"/><path fill="#6DDAD2" fill-rule="evenodd" d="M22.847 13.869a1.818 1.818 0 0 1 2.554-.294 23.795 23.795 0 0 1 1.79 1.608 33.86 33.86 0 0 1 .812.826l.013.014.006.006-1.293 1.21 1.293-1.21a1.818 1.818 0 0 1-2.655 2.484l-.001-.002-.009-.009-.037-.039a30.901 30.901 0 0 0-.678-.688 20.313 20.313 0 0 0-1.501-1.352 1.818 1.818 0 0 1-.294-2.554Zm5.887 5.955a1.818 1.818 0 0 1 2.451.774c1.414 2.72 2.022 5.554 2.022 9.018 0 7.189-2.053 11.568-4.925 14.021-2.83 2.417-6.145 2.696-8.147 2.305a1.818 1.818 0 0 1 .696-3.568c1.105.215 3.241.078 5.09-1.5 1.804-1.543 3.65-4.738 3.65-11.258 0-2.991-.514-5.23-1.611-7.341a1.818 1.818 0 0 1 .774-2.451Z" clip-rule="evenodd"/><path fill="#006A5F" fill-rule="evenodd" d="M24.976 31.522c-3.714.926-6.295 2.715-7.031 6.196-.135.639.02 1.74.612 2.792.58 1.028 1.398 1.693 2.274 1.864l-.696 3.568c-2.228-.434-3.818-2.004-4.744-3.646-.913-1.618-1.364-3.622-1.003-5.33 1.145-5.416 5.325-7.879 9.71-8.971 4.01-1 8.59-.966 12.053-.94l.778.005-.02 3.636-.7-.005c-3.551-.024-7.69-.051-11.233.831Zm13.772-4.443 6.362.038-.022 3.635-6.362-.037.022-3.636Zm8.32.114h7.195v3.635h-7.195v-3.635Z" clip-rule="evenodd"/><path fill="#6DDAD2" d="M19.575 13.636a1.818 1.818 0 1 0 0-3.636 1.818 1.818 0 0 0 0 3.636Z"/><path fill="#fff" fill-opacity=".1" fill-rule="evenodd" d="M63.263 8c.553 0 1 .422 1 .944v38.112c0 .522-.447.944-1 .944-.552 0-1-.422-1-.944V8.944c0-.522.448-.944 1-.944Z" clip-rule="evenodd"/><path fill="#6DDAD2" d="M120.885 27.235c-1.093 0-2.038-.227-2.833-.682a4.617 4.617 0 0 1-1.826-1.946c-.426-.843-.639-1.834-.639-2.976 0-1.122.213-2.107.639-2.954.431-.852 1.032-1.515 1.804-1.989.772-.478 1.679-.717 2.72-.717a5.51 5.51 0 0 1 1.904.327 4.311 4.311 0 0 1 1.591.994c.464.45.828 1.023 1.093 1.719.266.69.398 1.515.398 2.471v.789h-8.942v-1.733h6.478a2.773 2.773 0 0 0-.32-1.314 2.321 2.321 0 0 0-.873-.916c-.37-.223-.801-.334-1.293-.334-.526 0-.987.128-1.385.383a2.635 2.635 0 0 0-.93.995 2.85 2.85 0 0 0-.334 1.342v1.513c0 .634.116 1.179.348 1.633.232.45.556.796.973 1.037.416.237.904.355 1.463.355.374 0 .712-.052 1.015-.156.304-.109.566-.268.789-.476a1.99 1.99 0 0 0 .504-.774l2.401.27a3.75 3.75 0 0 1-.867 1.662c-.421.469-.961.833-1.619 1.094-.658.255-1.411.383-2.259.383ZM110.841 27.022v-10.91h2.571v10.91h-2.571Zm1.293-12.457c-.408 0-.758-.135-1.052-.405a1.306 1.306 0 0 1-.44-.987c0-.389.147-.718.44-.988a1.487 1.487 0 0 1 1.052-.412c.411 0 .762.138 1.051.412.293.27.44.6.44.988 0 .383-.147.712-.44.987-.289.27-.64.405-1.051.405ZM108.691 16.113v1.989h-6.272v-1.99h6.272Zm-4.723-2.614h2.571v10.242c0 .345.052.61.156.795.109.18.251.303.426.37.175.066.369.099.583.099.161 0 .307-.012.44-.035.137-.024.241-.046.312-.064l.434 2.01c-.138.047-.334.099-.59.156-.251.057-.559.09-.923.1-.644.018-1.224-.079-1.74-.292a2.708 2.708 0 0 1-1.229-1.008c-.298-.455-.445-1.023-.44-1.705V13.499ZM101.093 16.113v1.989h-6.271v-1.99h6.271Zm-4.723-2.614h2.571v10.242c0 .345.052.61.156.795.11.18.251.303.427.37.175.066.369.099.582.099.161 0 .308-.012.44-.035.138-.024.242-.046.313-.064l.433 2.01a5.72 5.72 0 0 1-.59.156c-.25.057-.558.09-.923.1-.644.018-1.224-.079-1.74-.292a2.707 2.707 0 0 1-1.229-1.008c-.298-.455-.445-1.023-.44-1.705V13.499ZM88.236 27.235c-1.065 0-1.988-.234-2.77-.703a4.776 4.776 0 0 1-1.818-1.967c-.426-.843-.64-1.828-.64-2.955s.214-2.114.64-2.962a4.766 4.766 0 0 1 1.818-1.974c.782-.469 1.705-.703 2.77-.703 1.066 0 1.989.234 2.77.703a4.72 4.72 0 0 1 1.811 1.974c.431.848.647 1.835.647 2.962 0 1.127-.216 2.112-.647 2.955a4.729 4.729 0 0 1-1.81 1.967c-.782.469-1.706.703-2.77.703Zm.014-2.06c.578 0 1.061-.158 1.45-.475.388-.322.676-.753.866-1.293a5.3 5.3 0 0 0 .29-1.804c0-.668-.096-1.271-.29-1.811-.19-.545-.478-.978-.867-1.3-.388-.322-.87-.483-1.449-.483-.591 0-1.084.161-1.477.483-.388.322-.68.755-.873 1.3a5.447 5.447 0 0 0-.285 1.811c0 .663.095 1.264.285 1.804.194.54.485.97.873 1.293.393.317.886.475 1.477.475ZM72.263 27.022V12.477h2.635v12.336h6.406v2.209h-9.04Z"/><path fill="#fff" fill-opacity=".8" d="M90.847 44.227c-.673-.003-1.249-.18-1.726-.533-.477-.352-.842-.865-1.095-1.538-.253-.674-.38-1.485-.38-2.434 0-.946.127-1.754.38-2.424.256-.67.622-1.182 1.1-1.535.48-.352 1.053-.528 1.721-.528.668 0 1.24.178 1.717.533.478.352.843.863 1.096 1.534.255.667.383 1.474.383 2.42 0 .952-.126 1.764-.38 2.438-.252.67-.617 1.183-1.094 1.538-.478.352-1.052.529-1.722.529Zm0-1.138c.59 0 1.053-.289 1.385-.865.335-.577.503-1.41.503-2.502 0-.724-.077-1.336-.23-1.836-.15-.503-.368-.884-.652-1.142a1.427 1.427 0 0 0-1.006-.392c-.588 0-1.05.29-1.385.869-.335.58-.504 1.413-.507 2.501 0 .728.075 1.343.226 1.846.153.5.37.879.652 1.137.281.256.62.384 1.014.384ZM85.583 44.163a.827.827 0 0 1-.6-.247.825.825 0 0 1-.252-.606c0-.233.084-.431.251-.596a.82.82 0 0 1 .601-.252.82.82 0 0 1 .601.252.806.806 0 0 1 .251.596c0 .157-.04.3-.119.43a.882.882 0 0 1-.307.308.813.813 0 0 1-.426.115ZM82.87 35.354v8.728h-1.321v-7.407h-.051l-2.089 1.364v-1.261l2.178-1.424h1.283ZM78.378 37.536l-2.373 6.546H74.64l-2.378-6.546h1.368l1.658 5.037h.068l1.653-5.037h1.368Z"/></svg>